<svg xmlns="http://www.w3.org/2000/svg" width="700" height="440" viewBox="0 0 700 440" version="1.1"><path d="M 221.600 192.265 C 215.554 203.356, 214.010 207.250, 212.883 214.248 C 211.514 222.745, 213.067 229.396, 219.753 243.683 L 225.500 255.960 235 255.968 L 244.500 255.976 257.500 230.942 C 264.650 217.173, 271.064 204.578, 271.753 202.954 L 273.006 200 263.753 200.016 L 254.500 200.033 244.889 218.624 L 235.278 237.214 230.706 228.621 L 226.134 220.027 235.066 202.763 C 239.979 193.269, 243.999 185.162, 243.999 184.750 C 244 184.338, 239.974 184, 235.052 184 L 226.105 184 221.600 192.265 M 285.862 210.675 L 272.224 237.314 268.022 229.657 C 265.710 225.446, 263.639 222, 263.420 222 C 263.200 222, 261.034 225.954, 258.607 230.787 L 254.194 239.574 258.347 247.537 L 262.500 255.500 272 255.778 L 281.500 256.056 299.750 220.683 C 309.788 201.229, 318 185.016, 318 184.656 C 318 184.295, 313.837 184.008, 308.750 184.018 L 299.500 184.035 285.862 210.675 M 368 198.500 L 368 211 370.437 211 C 372.441 211, 372.929 210.437, 373.187 207.827 C 373.621 203.430, 375.270 203.307, 378.099 207.460 C 379.894 210.096, 381.216 210.988, 383.335 210.993 L 386.170 211 382.506 206.008 L 378.841 201.016 381.951 197.258 C 384.948 193.635, 384.983 193.488, 382.909 193.165 C 381.481 192.942, 379.456 194.102, 376.880 196.618 L 373 200.406 373 193.203 C 373 186.186, 372.935 186, 370.500 186 L 368 186 368 198.500 M 389 198.500 L 389 211 391.500 211 C 393.859 211, 394 210.695, 394 205.582 C 394 198.655, 394.675 197, 397.500 197 C 400.325 197, 401 198.655, 401 205.582 C 401 210.333, 401.246 211, 403 211 C 404.833 211, 405 210.333, 405 203.035 C 405 196.184, 404.730 194.926, 403.066 194.035 C 400.470 192.646, 396.674 192.726, 395.200 194.200 C 394.267 195.133, 394 194.356, 394 190.700 C 394 186.353, 393.812 186, 391.500 186 L 389 186 389 198.500 M 331.750 194.080 C 330.713 194.684, 330 196.294, 330 198.029 C 330 200.441, 330.708 201.320, 334 203 C 339.202 205.654, 339.184 207.323, 333.959 206.825 C 330.368 206.482, 329.951 206.665, 330.209 208.470 C 330.434 210.037, 331.372 210.572, 334.326 210.815 C 342.767 211.510, 346.189 204.342, 339.105 200.805 C 333.408 197.961, 332.882 196.670, 337.661 197.267 C 341.094 197.695, 341.905 197.470, 342.295 195.979 C 342.617 194.750, 342.086 193.990, 340.634 193.600 C 337.422 192.738, 333.710 192.939, 331.750 194.080 M 347 200.345 C 347 206.191, 347.373 208.028, 348.829 209.345 C 350.897 211.216, 354.230 211.482, 357.005 209.997 C 358.257 209.327, 359.084 209.327, 359.498 209.997 C 359.839 210.549, 360.766 211, 361.559 211 C 362.707 211, 363 209.170, 363 202 C 363 193.667, 362.852 193, 361 193 C 359.301 193, 359 193.667, 359 197.435 C 359 203.915, 357.507 207.211, 354.748 206.819 C 352.706 206.529, 352.473 205.882, 352.204 199.750 C 351.923 193.330, 351.788 193, 349.454 193 C 347.071 193, 347 193.213, 347 200.345 M 412.677 193.703 C 411.551 193.995, 411.072 194.746, 411.427 195.669 C 411.742 196.491, 412 197.309, 412 197.487 C 412 197.664, 413.800 197.568, 416 197.273 C 419.252 196.837, 420 197.042, 420 198.368 C 420 199.430, 419.150 200, 417.565 200 C 410.888 200, 407.501 204.064, 410.440 208.549 C 412.194 211.226, 416.700 211.900, 418.800 209.800 C 419.733 208.867, 420.267 208.867, 421.200 209.800 C 424.061 212.661, 425 211.119, 425 203.557 C 425 196.999, 424.736 195.928, 422.777 194.557 C 420.641 193.060, 416.513 192.711, 412.677 193.703 M 430 202 C 430 210.933, 430.019 211, 432.500 211 C 434.879 211, 435 210.720, 435 205.200 C 435 199.248, 436.122 197, 439.093 197 C 441.319 197, 442 199.010, 442 205.582 C 442 210.695, 442.141 211, 444.500 211 C 446.886 211, 447 210.729, 447 205.065 C 447 201.801, 446.566 197.988, 446.035 196.593 C 444.859 193.500, 440.837 192.298, 437.203 193.953 C 435.351 194.797, 434.445 194.835, 434.193 194.080 C 433.995 193.486, 432.971 193, 431.917 193 C 430.170 193, 430 193.797, 430 202 M 453.635 195.073 C 451.435 196.803, 451 197.946, 451 202 C 451 206.054, 451.435 207.197, 453.635 208.927 C 459.545 213.576, 468 209.499, 468 202 C 468 194.501, 459.545 190.424, 453.635 195.073 M 470 193.936 C 470 194.451, 471.420 198.501, 473.156 202.936 C 475.822 209.747, 476.668 211, 478.597 211 C 481.369 211, 481.238 211.204, 484.950 201.136 L 487.950 193 485.529 193 C 483.470 193, 482.768 193.930, 480.846 199.204 L 478.584 205.407 476.599 199.204 C 474.923 193.964, 474.256 193, 472.307 193 C 471.038 193, 470 193.421, 470 193.936 M 456 199.500 C 454.765 202.748, 456.338 207, 458.775 207 C 461.346 207, 463 205.042, 463 202 C 463 196.909, 457.704 195.018, 456 199.500 M 414.667 203.667 C 412.965 205.368, 414.118 207.119, 416.741 206.816 C 420.343 206.401, 421.233 203, 417.740 203 C 416.416 203, 415.033 203.300, 414.667 203.667 M 378 235.500 C 378 247.152, 378.130 248, 379.917 248 C 380.971 248, 382.040 247.438, 382.292 246.750 C 382.658 245.750, 383.015 245.750, 384.075 246.750 C 387.942 250.398, 393.960 246.551, 394.697 239.961 C 395.518 232.608, 390.525 228.043, 384.934 231.035 C 383.154 231.988, 383 231.709, 383 227.535 C 383 223.364, 382.799 223, 380.500 223 L 378 223 378 235.500 M 329 231.060 C 329 231.720, 329.971 235.801, 331.157 240.130 C 333.194 247.563, 333.469 248, 336.107 248 C 338.723 248, 338.974 247.620, 340.085 241.976 C 340.736 238.662, 341.609 235.742, 342.024 235.485 C 342.438 235.229, 343.328 237.940, 344.002 241.510 C 345.160 247.646, 345.378 248, 348.005 248 C 350.046 248, 350.939 247.403, 351.369 245.750 C 351.691 244.512, 352.833 240.463, 353.907 236.750 L 355.859 230 353.468 230 C 351.494 230, 350.886 230.741, 349.979 234.250 C 347.780 242.761, 347.736 242.785, 346.267 236.250 C 344.959 230.434, 344.670 230, 342.105 230 C 339.547 230, 339.241 230.451, 337.873 236.250 L 336.399 242.500 334.908 236.500 C 333.700 231.637, 332.998 230.439, 331.209 230.180 C 329.981 230.003, 329 230.393, 329 231.060 M 360.635 232.073 C 358.435 233.803, 358 234.946, 358 239 C 358 243.054, 358.435 244.197, 360.635 245.927 C 364.675 249.106, 373 248.573, 373 245.136 C 373 243.798, 372.163 243.552, 368.585 243.837 C 364.922 244.128, 363.980 243.832, 363.050 242.094 C 361.970 240.076, 362.149 240, 367.965 240 C 373.764 240, 374 239.901, 374 237.455 C 374 233.987, 369.817 230, 366.180 230 C 364.579 230, 362.084 230.933, 360.635 232.073 M 363 235.500 C 363 236.500, 364 237, 366 237 C 368 237, 369 236.500, 369 235.500 C 369 234.500, 368 234, 366 234 C 364 234, 363 234.500, 363 235.500 M 383.411 236.500 C 382.492 240.160, 383.725 244, 385.819 244 C 388.348 244, 390 242.025, 390 239 C 390 233.962, 384.565 231.900, 383.411 236.500" stroke="none" fill="#9033a7" fill-rule="evenodd"/><path d="M 0 220.001 L 0 440.003 350.250 439.751 L 700.500 439.500 700.752 219.750 L 701.004 0 350.502 0 L 0 0 0 220.001 M 0.491 220.500 C 0.491 341.500, 0.608 390.852, 0.750 330.170 C 0.892 269.489, 0.892 170.489, 0.750 110.170 C 0.608 49.852, 0.491 99.500, 0.491 220.500 M 221.600 192.265 C 215.554 203.356, 214.010 207.250, 212.883 214.248 C 211.514 222.745, 213.067 229.396, 219.753 243.683 L 225.500 255.960 235 255.968 L 244.500 255.976 257.500 230.942 C 264.650 217.173, 271.064 204.578, 271.753 202.954 L 273.006 200 263.753 200.016 L 254.500 200.033 244.889 218.624 L 235.278 237.214 230.706 228.621 L 226.134 220.027 235.066 202.763 C 239.979 193.269, 243.999 185.162, 243.999 184.750 C 244 184.338, 239.974 184, 235.052 184 L 226.105 184 221.600 192.265 M 285.862 210.675 L 272.224 237.314 268.022 229.657 C 265.710 225.446, 263.639 222, 263.420 222 C 263.200 222, 261.034 225.954, 258.607 230.787 L 254.194 239.574 258.347 247.537 L 262.500 255.500 272 255.778 L 281.500 256.056 299.750 220.683 C 309.788 201.229, 318 185.016, 318 184.656 C 318 184.295, 313.837 184.008, 308.750 184.018 L 299.500 184.035 285.862 210.675 M 368 198.500 L 368 211 370.437 211 C 372.441 211, 372.929 210.437, 373.187 207.827 C 373.621 203.430, 375.270 203.307, 378.099 207.460 C 379.894 210.096, 381.216 210.988, 383.335 210.993 L 386.170 211 382.506 206.008 L 378.841 201.016 381.951 197.258 C 384.948 193.635, 384.983 193.488, 382.909 193.165 C 381.481 192.942, 379.456 194.102, 376.880 196.618 L 373 200.406 373 193.203 C 373 186.186, 372.935 186, 370.500 186 L 368 186 368 198.500 M 389 198.500 L 389 211 391.500 211 C 393.859 211, 394 210.695, 394 205.582 C 394 198.655, 394.675 197, 397.500 197 C 400.325 197, 401 198.655, 401 205.582 C 401 210.333, 401.246 211, 403 211 C 404.833 211, 405 210.333, 405 203.035 C 405 196.184, 404.730 194.926, 403.066 194.035 C 400.470 192.646, 396.674 192.726, 395.200 194.200 C 394.267 195.133, 394 194.356, 394 190.700 C 394 186.353, 393.812 186, 391.500 186 L 389 186 389 198.500 M 331.750 194.080 C 330.713 194.684, 330 196.294, 330 198.029 C 330 200.441, 330.708 201.320, 334 203 C 339.202 205.654, 339.184 207.323, 333.959 206.825 C 330.368 206.482, 329.951 206.665, 330.209 208.470 C 330.434 210.037, 331.372 210.572, 334.326 210.815 C 342.767 211.510, 346.189 204.342, 339.105 200.805 C 333.408 197.961, 332.882 196.670, 337.661 197.267 C 341.094 197.695, 341.905 197.470, 342.295 195.979 C 342.617 194.750, 342.086 193.990, 340.634 193.600 C 337.422 192.738, 333.710 192.939, 331.750 194.080 M 347 200.345 C 347 206.191, 347.373 208.028, 348.829 209.345 C 350.897 211.216, 354.230 211.482, 357.005 209.997 C 358.257 209.327, 359.084 209.327, 359.498 209.997 C 359.839 210.549, 360.766 211, 361.559 211 C 362.707 211, 363 209.170, 363 202 C 363 193.667, 362.852 193, 361 193 C 359.301 193, 359 193.667, 359 197.435 C 359 203.915, 357.507 207.211, 354.748 206.819 C 352.706 206.529, 352.473 205.882, 352.204 199.750 C 351.923 193.330, 351.788 193, 349.454 193 C 347.071 193, 347 193.213, 347 200.345 M 412.677 193.703 C 411.551 193.995, 411.072 194.746, 411.427 195.669 C 411.742 196.491, 412 197.309, 412 197.487 C 412 197.664, 413.800 197.568, 416 197.273 C 419.252 196.837, 420 197.042, 420 198.368 C 420 199.430, 419.150 200, 417.565 200 C 410.888 200, 407.501 204.064, 410.440 208.549 C 412.194 211.226, 416.700 211.900, 418.800 209.800 C 419.733 208.867, 420.267 208.867, 421.200 209.800 C 424.061 212.661, 425 211.119, 425 203.557 C 425 196.999, 424.736 195.928, 422.777 194.557 C 420.641 193.060, 416.513 192.711, 412.677 193.703 M 430 202 C 430 210.933, 430.019 211, 432.500 211 C 434.879 211, 435 210.720, 435 205.200 C 435 199.248, 436.122 197, 439.093 197 C 441.319 197, 442 199.010, 442 205.582 C 442 210.695, 442.141 211, 444.500 211 C 446.886 211, 447 210.729, 447 205.065 C 447 201.801, 446.566 197.988, 446.035 196.593 C 444.859 193.500, 440.837 192.298, 437.203 193.953 C 435.351 194.797, 434.445 194.835, 434.193 194.080 C 433.995 193.486, 432.971 193, 431.917 193 C 430.170 193, 430 193.797, 430 202 M 453.635 195.073 C 451.435 196.803, 451 197.946, 451 202 C 451 206.054, 451.435 207.197, 453.635 208.927 C 459.545 213.576, 468 209.499, 468 202 C 468 194.501, 459.545 190.424, 453.635 195.073 M 470 193.936 C 470 194.451, 471.420 198.501, 473.156 202.936 C 475.822 209.747, 476.668 211, 478.597 211 C 481.369 211, 481.238 211.204, 484.950 201.136 L 487.950 193 485.529 193 C 483.470 193, 482.768 193.930, 480.846 199.204 L 478.584 205.407 476.599 199.204 C 474.923 193.964, 474.256 193, 472.307 193 C 471.038 193, 470 193.421, 470 193.936 M 456 199.500 C 454.765 202.748, 456.338 207, 458.775 207 C 461.346 207, 463 205.042, 463 202 C 463 196.909, 457.704 195.018, 456 199.500 M 414.667 203.667 C 412.965 205.368, 414.118 207.119, 416.741 206.816 C 420.343 206.401, 421.233 203, 417.740 203 C 416.416 203, 415.033 203.300, 414.667 203.667 M 378 235.500 C 378 247.152, 378.130 248, 379.917 248 C 380.971 248, 382.040 247.438, 382.292 246.750 C 382.658 245.750, 383.015 245.750, 384.075 246.750 C 387.942 250.398, 393.960 246.551, 394.697 239.961 C 395.518 232.608, 390.525 228.043, 384.934 231.035 C 383.154 231.988, 383 231.709, 383 227.535 C 383 223.364, 382.799 223, 380.500 223 L 378 223 378 235.500 M 329 231.060 C 329 231.720, 329.971 235.801, 331.157 240.130 C 333.194 247.563, 333.469 248, 336.107 248 C 338.723 248, 338.974 247.620, 340.085 241.976 C 340.736 238.662, 341.609 235.742, 342.024 235.485 C 342.438 235.229, 343.328 237.940, 344.002 241.510 C 345.160 247.646, 345.378 248, 348.005 248 C 350.046 248, 350.939 247.403, 351.369 245.750 C 351.691 244.512, 352.833 240.463, 353.907 236.750 L 355.859 230 353.468 230 C 351.494 230, 350.886 230.741, 349.979 234.250 C 347.780 242.761, 347.736 242.785, 346.267 236.250 C 344.959 230.434, 344.670 230, 342.105 230 C 339.547 230, 339.241 230.451, 337.873 236.250 L 336.399 242.500 334.908 236.500 C 333.700 231.637, 332.998 230.439, 331.209 230.180 C 329.981 230.003, 329 230.393, 329 231.060 M 360.635 232.073 C 358.435 233.803, 358 234.946, 358 239 C 358 243.054, 358.435 244.197, 360.635 245.927 C 364.675 249.106, 373 248.573, 373 245.136 C 373 243.798, 372.163 243.552, 368.585 243.837 C 364.922 244.128, 363.980 243.832, 363.050 242.094 C 361.970 240.076, 362.149 240, 367.965 240 C 373.764 240, 374 239.901, 374 237.455 C 374 233.987, 369.817 230, 366.180 230 C 364.579 230, 362.084 230.933, 360.635 232.073 M 363 235.500 C 363 236.500, 364 237, 366 237 C 368 237, 369 236.500, 369 235.500 C 369 234.500, 368 234, 366 234 C 364 234, 363 234.500, 363 235.500 M 383.411 236.500 C 382.492 240.160, 383.725 244, 385.819 244 C 388.348 244, 390 242.025, 390 239 C 390 233.962, 384.565 231.900, 383.411 236.500" stroke="none" fill="#fbfbfb" fill-rule="evenodd"/></svg>